<svg width="20" height="20" viewBox="0 0 20 20" fill="currentColor" xmlns="http://www.w3.org/2000/svg">
  <path d="M9.99975 7.52C9.50926 7.52 9.02977 7.66545 8.62194 7.93795C8.21411 8.21046 7.89624 8.59778 7.70853 9.05094C7.52083 9.5041 7.47172 10.0027 7.56741 10.4838C7.6631 10.9649 7.8993 11.4068 8.24613 11.7536C8.59296 12.1005 9.03486 12.3367 9.51593 12.4323C9.997 12.528 10.4956 12.4789 10.9488 12.2912C11.402 12.1035 11.7893 11.7856 12.0618 11.3778C12.3343 10.97 12.4798 10.4905 12.4798 10C12.4798 9.67432 12.4156 9.35183 12.291 9.05094C12.1663 8.75006 11.9837 8.47666 11.7534 8.24637C11.5231 8.01608 11.2497 7.83341 10.9488 7.70878C10.6479 7.58415 10.3254 7.52 9.99975 7.52V7.52ZM19.9298 5.07C19.9245 4.29776 19.7823 3.53257 19.5098 2.81C19.309 2.28126 18.9985 1.80109 18.5986 1.40119C18.1987 1.00128 17.7185 0.690718 17.1898 0.49C16.4672 0.217464 15.702 0.0752609 14.9298 0.0699999C13.6398 -6.70552e-08 13.2598 0 9.99975 0C6.73976 0 6.35976 -6.70552e-08 5.06976 0.0699999C4.29751 0.0752609 3.53233 0.217464 2.80976 0.49C2.28102 0.690718 1.80085 1.00128 1.40094 1.40119C1.00103 1.80109 0.690473 2.28126 0.489756 2.81C0.21722 3.53257 0.0750167 4.29776 0.0697558 5.07C-0.000244208 6.36 -0.000244141 6.74 -0.000244141 10C-0.000244141 13.26 -0.000244208 13.64 0.0697558 14.93C0.0805197 15.705 0.22253 16.4725 0.489756 17.2C0.689584 17.7263 0.999885 18.2037 1.39976 18.6C1.79795 19.0023 2.27914 19.3129 2.80976 19.51C3.53233 19.7825 4.29751 19.9247 5.06976 19.93C6.35976 20 6.73976 20 9.99975 20C13.2598 20 13.6398 20 14.9298 19.93C15.702 19.9247 16.4672 19.7825 17.1898 19.51C17.7204 19.3129 18.2016 19.0023 18.5998 18.6C18.9996 18.2037 19.3099 17.7263 19.5098 17.2C19.782 16.4739 19.9242 15.7055 19.9298 14.93C19.9998 13.64 19.9998 13.26 19.9998 10C19.9998 6.74 19.9998 6.36 19.9298 5.07V5.07ZM17.3898 13.07C17.3577 13.6871 17.226 14.295 16.9998 14.87C16.8056 15.3497 16.517 15.7854 16.1511 16.1514C15.7852 16.5173 15.3494 16.8059 14.8698 17C14.2893 17.2136 13.678 17.3318 13.0598 17.35C12.2698 17.35 12.0598 17.35 9.99975 17.35C7.93975 17.35 7.72975 17.35 6.93975 17.35C6.32149 17.3318 5.71024 17.2136 5.12976 17C4.63386 16.8157 4.18603 16.5217 3.81976 16.14C3.45742 15.7812 3.1776 15.3479 2.99976 14.87C2.78531 14.2901 2.67036 13.6782 2.65976 13.06C2.65976 12.27 2.65976 12.06 2.65976 10C2.65976 7.94 2.65976 7.73 2.65976 6.94C2.67036 6.32182 2.78531 5.70988 2.99976 5.13C3.18404 4.6341 3.47803 4.18628 3.85976 3.82C4.22009 3.45962 4.65302 3.18009 5.12976 3C5.71024 2.78641 6.32149 2.66821 6.93975 2.65V2.65C7.72975 2.65 7.93975 2.65 9.99975 2.65C12.0598 2.65 12.2698 2.65 13.0598 2.65C13.678 2.66821 14.2893 2.78641 14.8698 3C15.3657 3.18428 15.8135 3.47827 16.1798 3.86C16.5421 4.21875 16.8219 4.65213 16.9998 5.13C17.2133 5.71049 17.3315 6.32173 17.3498 6.94C17.3498 7.73 17.3498 7.94 17.3498 10C17.3498 12.06 17.4198 12.27 17.3898 13.06V13.07ZM15.7898 5.63C15.6707 5.30698 15.483 5.01364 15.2395 4.77021C14.9961 4.52678 14.7028 4.33906 14.3798 4.22C13.9362 4.06626 13.4691 3.99179 12.9998 4C12.2198 4 11.9998 4 9.99975 4C7.99975 4 7.77975 4 6.99976 4C6.52802 4.00461 6.06082 4.09263 5.61976 4.26C5.30168 4.37366 5.01145 4.55371 4.76834 4.7882C4.52523 5.02269 4.33482 5.30624 4.20976 5.62C4.06453 6.06537 3.99358 6.53159 3.99976 7C3.99976 7.78 3.99976 8 3.99976 10C3.99976 12 3.99976 12.22 3.99976 13C4.00967 13.4712 4.09752 13.9375 4.25976 14.38C4.37882 14.703 4.56654 14.9964 4.80997 15.2398C5.0534 15.4832 5.34674 15.6709 5.66976 15.79C6.09642 15.9469 6.54541 16.0347 6.99976 16.05V16.05C7.77975 16.05 7.99975 16.05 9.99975 16.05C11.9998 16.05 12.2198 16.05 12.9998 16.05C13.4715 16.0454 13.9387 15.9574 14.3798 15.79C14.7028 15.6709 14.9961 15.4832 15.2395 15.2398C15.483 14.9964 15.6707 14.703 15.7898 14.38C15.9571 13.9389 16.0451 13.4717 16.0498 13C16.0498 12.22 16.0498 12 16.0498 10C16.0498 8 16.0498 7.78 16.0498 7C16.05 6.5278 15.9619 6.05972 15.7898 5.62V5.63ZM9.99975 13.82C9.49858 13.82 9.00232 13.7211 8.53942 13.529C8.07651 13.3369 7.65606 13.0554 7.30214 12.7005C6.94821 12.3457 6.66778 11.9245 6.4769 11.4611C6.28602 10.9977 6.18844 10.5012 6.18975 10V10C6.18976 9.24405 6.41405 8.5051 6.83424 7.87669C7.25443 7.24827 7.85163 6.75866 8.55022 6.46983C9.24882 6.181 10.0174 6.10594 10.7587 6.25415C11.5 6.40236 12.1806 6.76717 12.7144 7.30241C13.2483 7.83764 13.6113 8.51924 13.7576 9.2609C13.9038 10.0026 13.8268 10.771 13.5361 11.4688C13.2454 12.1666 12.7543 12.7625 12.1248 13.1811C11.4952 13.5996 10.7557 13.822 9.99975 13.82V13.82ZM13.9998 6.93C13.7787 6.9066 13.5741 6.80222 13.4254 6.63697C13.2768 6.47172 13.1945 6.25729 13.1945 6.035C13.1945 5.81271 13.2768 5.59828 13.4254 5.43303C13.5741 5.26778 13.7787 5.1634 13.9998 5.14V5.14C14.2208 5.1634 14.4254 5.26778 14.5741 5.43303C14.7228 5.59828 14.805 5.81271 14.805 6.035C14.805 6.25729 14.7228 6.47172 14.5741 6.63697C14.4254 6.80222 14.2208 6.9066 13.9998 6.93Z" fill="currentColor"/>
</svg>
