<svg width="24" height="18" viewBox="0 0 24 18" fill="currentColor" xmlns="http://www.w3.org/2000/svg">
  <path d="M21.75 0H2.25C1.65326 0 1.08097 0.237053 0.65901 0.65901C0.237053 1.08097 0 1.65326 0 2.25L0 15.75C0 16.3467 0.237053 16.919 0.65901 17.341C1.08097 17.7629 1.65326 18 2.25 18H21.75C22.3467 18 22.919 17.7629 23.341 17.341C23.7629 16.919 24 16.3467 24 15.75V2.25C24 1.65326 23.7629 1.08097 23.341 0.65901C22.919 0.237053 22.3467 0 21.75 0ZM19.101 1.5L12 7.107L4.899 1.5H19.101ZM3 16.5V3.969L12 10.8915L21 3.9675V16.5H3Z" fill="currentColor"/>
</svg>
