<svg width="24" height="24" viewBox="0 0 24 24" fill="none" xmlns="http://www.w3.org/2000/svg">
  <g clipPath="url(#clip0_207_364)">
    <path d="M23.993 0H0.00703125C0.003148 0 0 0.003148 0 0.00703125V23.993C0 23.9969 0.003148 24 0.00703125 24H23.993C23.9969 24 24 23.9969 24 23.993V0.00703125C24 0.003148 23.9969 0 23.993 0Z" fill="currentColor"/>
    <path d="M9.32812 18.9375C8.8125 18.9375 8.85938 18.75 8.71875 18.2812L7.21875 13.3594L18.7031 6.60938" fill="#F2C4A1"/>
    <path d="M9.32812 18.9375C9.65625 18.9375 9.84375 18.75 10.0781 18.5625L12.1875 16.5469L9.5625 14.9531" fill="#E6B58F"/>
    <path d="M9.5624 14.9531L15.8905 19.5937C16.5468 20.0156 17.1093 19.7812 17.2968 18.9375L19.8749 6.84371C20.1093 5.81246 19.453 5.34371 18.7499 5.67184L3.70303 11.4843C2.71865 11.8593 2.71865 12.4687 3.51553 12.7031L7.40615 13.9218L16.3124 8.24996C16.7343 8.01559 17.1093 8.10934 16.828 8.43746" fill="#F6FBFE"/>
  </g>
  <defs>
    <clipPath id="clip0_207_364">
      <rect width="24" height="24" rx="4" fill="white"/>
    </clipPath>
  </defs>
</svg>
